<svg viewBox="0 0 19 18" xmlns="http://www.w3.org/2000/svg" xmlns:xlink="http://www.w3.org/1999/xlink" width="19.000000" height="18.000000" fill="none" customFrame="#000000">
	<path id="Vector" d="M11.3321 10.7357C9.83927 12.195 9.7307 14.0143 9.60177 18C13.5239 18 16.2314 17.9871 17.6293 16.7014C18.9864 15.3771 19 12.69 19 9.09643C14.7928 9.225 12.8725 9.32143 11.3321 10.7357ZM-1.52588e-05 9.09643C-1.52588e-05 12.69 0.0135561 15.3771 1.3707 16.7014C2.76856 17.9871 5.47606 18 9.3982 18C9.26248 14.0143 9.1607 12.195 7.66784 10.7357C6.12749 9.32143 4.20713 9.21857 -1.52588e-05 9.09643ZM9.3982 0C5.48284 0 2.76856 0.0128571 1.3707 1.29857C0.0135561 2.62286 -1.52588e-05 5.31 -1.52588e-05 8.90357C4.20713 8.775 6.12749 8.67857 7.66784 7.26429C9.1607 5.805 9.26927 3.98571 9.3982 0ZM11.3321 7.26429C9.83927 5.805 9.7307 3.98571 9.60177 0C13.5239 0 16.2314 0.0128571 17.6293 1.29857C18.9864 2.62286 19 5.31 19 8.90357C14.7928 8.775 12.8725 8.67857 11.3321 7.26429Z" fill="rgb(136.078,136.078,136.078)" fill-rule="nonzero" />
</svg>
